<svg width="860" height="310" viewBox="0 0 860 310" xmlns="http://www.w3.org/2000/svg">
  <defs>
    <style>
      @keyframes blink { 0%, 100% { opacity: 1; } 50% { opacity: 0; } }
      .cur { animation: blink 1.1s step-end infinite; }
    </style>
  </defs>

  <!-- card bg -->
  <rect x="20" y="6" width="820" height="298" rx="16" fill="#0f0e1a" stroke="#2a1842" stroke-width=".8"/>
  <!-- left accent -->
  <rect x="20" y="6"   width="3" height="298" rx="1" fill="#FF9EC4"/>
  <!-- right accent -->
  <rect x="837" y="6"  width="3" height="298" rx="1" fill="#98E4FF"/>

  <!-- title bar -->
  <rect x="20" y="6" width="820" height="36" rx="14" fill="#1a1436"/>
  <rect x="20" y="26" width="820" height="16" fill="#1a1436"/>

  <!-- traffic lights -->
  <circle cx="44" cy="24" r="5.5" fill="#FF9EC4" opacity=".9"/>
  <circle cx="60" cy="24" r="5.5" fill="#DDA0DD" opacity=".9"/>
  <circle cx="76" cy="24" r="5.5" fill="#98E4FF" opacity=".9"/>

  <!-- title text -->
  <text x="430" y="29" text-anchor="middle" font-family="monospace" font-size="10" fill="#554466" letter-spacing="2">✦  IDENTITY FILE  ✦</text>
  <text x="820" y="29" text-anchor="end" font-family="monospace" font-size="10" fill="#443355">v2.5.0</text>

  <!-- divider -->
  <line x1="40" y1="44" x2="820" y2="44" stroke="#2a1842" stroke-width=".7"/>

  <!-- LEFT COLUMN header -->
  <text x="50" y="66" font-family="monospace" font-size="10" fill="#554466" letter-spacing="1.5">── PERSONAL ──</text>

  <!-- LEFT rows -->
  <text x="50"  y="90"  font-family="monospace" font-size="11" fill="#554466">名前</text>
  <text x="140" y="90"  font-family="monospace" font-size="11" fill="#ffffff" font-weight="bold">Zaki Fadlan</text>

  <text x="50"  y="110" font-family="monospace" font-size="11" fill="#554466">ハンドル</text>
  <text x="140" y="110" font-family="monospace" font-size="11" fill="#FF9EC4">@Zaki-Fadlan</text>

  <text x="50"  y="130" font-family="monospace" font-size="11" fill="#554466">出身</text>
  <text x="140" y="130" font-family="monospace" font-size="11" fill="#B0C4FF">Depok, West Java 🇮🇩</text>

  <text x="50"  y="150" font-family="monospace" font-size="11" fill="#554466">会社</text>
  <text x="140" y="150" font-family="monospace" font-size="11" fill="#DDA0DD">Luwes Inovasi Mandiri</text>

  <text x="50"  y="170" font-family="monospace" font-size="11" fill="#554466">役割</text>
  <text x="140" y="170" font-family="monospace" font-size="11" fill="#DDA0DD">System Engineer</text>
  <text x="148" y="185" font-family="monospace" font-size="10" fill="#7755aa">└─ de facto Tech Lead 👑</text>

  <text x="50"  y="207" font-family="monospace" font-size="11" fill="#554466">経験</text>
  <text x="140" y="207" font-family="monospace" font-size="11" fill="#B0C4FF">5+ tahun</text>

  <text x="50"  y="227" font-family="monospace" font-size="11" fill="#554466">status</text>
  <text x="140" y="227" font-family="monospace" font-size="11" fill="#98E4FF">☕ ngoding + 📺 anime</text>

  <text x="50"  y="247" font-family="monospace" font-size="11" fill="#554466">sleep</text>
  <text x="140" y="247" font-family="monospace" font-size="11" fill="#FF6688">404 Not Found</text>
  <text x="258" y="247" font-family="monospace" font-size="11" fill="#FF6688" class="cur">_</text>

  <!-- vertical divider -->
  <line x1="440" y1="48" x2="440" y2="292" stroke="#2a1842" stroke-width=".7"/>

  <!-- RIGHT COLUMN header -->
  <text x="460" y="66" font-family="monospace" font-size="10" fill="#554466" letter-spacing="1.5">── QUEST STATUS ──</text>

  <!-- quest pills -->
  <rect x="460" y="74"  width="360" height="26" rx="7" fill="#1a1436"/>
  <text x="472" y="91"  font-family="monospace" font-size="10.5" fill="#FF9EC4">⚔️  Tech Lead Arc</text>
  <rect x="752" y="78"  width="58" height="18" rx="9" fill="#0d3020"/>
  <text x="781" y="91"  text-anchor="middle" font-family="monospace" font-size="9" fill="#39FF14">進行中</text>

  <rect x="460" y="108" width="360" height="26" rx="7" fill="#1a1436"/>
  <text x="472" y="125" font-family="monospace" font-size="10.5" fill="#98E4FF">📡  Weather Forecast Engine</text>
  <rect x="752" y="112" width="58" height="18" rx="9" fill="#0d3020"/>
  <text x="781" y="125" text-anchor="middle" font-family="monospace" font-size="9" fill="#39FF14">稼働中</text>

  <rect x="460" y="142" width="360" height="26" rx="7" fill="#1a1436"/>
  <text x="472" y="159" font-family="monospace" font-size="10.5" fill="#98E4FF">🌾  AI Farm Dashboard</text>
  <rect x="752" y="146" width="58" height="18" rx="9" fill="#0d3020"/>
  <text x="781" y="159" text-anchor="middle" font-family="monospace" font-size="9" fill="#39FF14">稼働中</text>

  <rect x="460" y="176" width="360" height="26" rx="7" fill="#1a1436"/>
  <text x="472" y="193" font-family="monospace" font-size="10.5" fill="#98E4FF">🔐  Microservices Auth Stack</text>
  <rect x="752" y="180" width="58" height="18" rx="9" fill="#0d3020"/>
  <text x="781" y="193" text-anchor="middle" font-family="monospace" font-size="9" fill="#39FF14">稼働中</text>

  <rect x="460" y="210" width="360" height="26" rx="7" fill="#1a1436"/>
  <text x="472" y="227" font-family="monospace" font-size="10.5" fill="#554466">🗡️  S-Rank Engineer</text>
  <rect x="752" y="214" width="58" height="18" rx="9" fill="#2a0d0d"/>
  <text x="781" y="227" text-anchor="middle" font-family="monospace" font-size="9" fill="#FF4455">未解除</text>

  <!-- motto -->
  <line x1="40" y1="270" x2="820" y2="270" stroke="#2a1842" stroke-width=".7"/>
  <text x="430" y="290" text-anchor="middle" font-family="Georgia, serif" font-size="13" fill="#DDA0DD" font-style="italic" letter-spacing="1">「 諦めたらそこで試合終了ですよ 」</text>
</svg>
